<?xml version="1.0" standalone="no"?>
<!DOCTYPE svg PUBLIC "-//W3C//DTD SVG 20010904//EN"
 "http://www.w3.org/TR/2001/REC-SVG-20010904/DTD/svg10.dtd">
<svg version="1.0" xmlns="http://www.w3.org/2000/svg"
 width="500.000000pt" height="500.000000pt" viewBox="0 0 500.000000 500.000000"
 preserveAspectRatio="xMidYMid meet">

<g transform="translate(0.000000,500.000000) scale(0.100000,-0.100000)"
fill="#000000" stroke="none">
<path d="M2832 3569 c-110 -103 -154 -151 -161 -174 -5 -18 -21 -100 -36 -182
l-28 -149 -81 -12 c-215 -31 -394 -186 -476 -410 -22 -59 -24 -62 -57 -62 -46
0 -64 -36 -38 -76 l18 -27 661 6 c363 3 669 9 679 12 21 9 33 53 20 74 -7 10
-28 17 -61 19 -51 3 -52 3 -63 45 -50 187 -238 367 -434 412 l-50 12 2 54 c2
30 12 99 22 153 l20 100 93 88 c51 49 111 105 134 123 56 48 71 78 54 110 -27
51 -55 36 -218 -116z m-225 -639 c33 -25 48 -25 75 2 20 20 24 20 72 8 137
-35 262 -136 324 -261 17 -37 32 -71 32 -77 0 -8 -139 -12 -477 -14 -263 -2
-481 -2 -485 0 -11 4 21 80 57 137 64 100 161 173 280 211 58 18 93 17 122 -6z"/>
<path d="M2055 2401 c-18 -21 -18 -27 15 -336 10 -93 33 -332 50 -515 17 -183
60 -612 70 -699 15 -132 -23 -121 431 -121 l388 0 15 22 c9 12 16 38 16 58 0
19 7 87 15 150 9 63 31 234 50 380 18 146 43 337 54 425 19 145 52 422 67 566
11 96 57 89 -590 89 -545 0 -563 -1 -581 -19z m1065 -98 c0 -5 -14 -115 -30
-246 -17 -131 -37 -297 -45 -370 -8 -73 -31 -253 -50 -402 -19 -148 -40 -309
-46 -357 l-12 -88 -322 0 -322 0 -17 177 c-9 98 -23 246 -31 328 -9 83 -19
195 -25 250 -5 55 -23 235 -40 399 -16 164 -30 303 -30 307 0 5 218 9 485 9
267 0 485 -3 485 -7z"/>
</g>
</svg>
