<?xml version="1.0" standalone="no"?>
<!DOCTYPE svg PUBLIC "-//W3C//DTD SVG 20010904//EN"
 "http://www.w3.org/TR/2001/REC-SVG-20010904/DTD/svg10.dtd">
<svg version="1.0" xmlns="http://www.w3.org/2000/svg"
 width="500.000000pt" height="500.000000pt" viewBox="0 0 500.000000 500.000000"
 preserveAspectRatio="xMidYMid meet">

<g transform="translate(0.000000,500.000000) scale(0.100000,-0.100000)"
fill="#000000" stroke="none">
<path d="M2394 3695 c-10 -26 3 -43 49 -63 69 -30 123 -86 147 -148 31 -84 27
-105 -23 -130 -23 -11 -53 -36 -66 -56 -19 -30 -33 -39 -73 -47 -119 -26 -193
-93 -226 -204 -15 -51 -21 -58 -52 -69 -41 -13 -135 -75 -167 -109 -28 -31
-69 -132 -78 -191 -6 -42 3 -115 20 -160 6 -15 -2 -17 -62 -20 l-68 -3 1 -90
c1 -77 5 -101 32 -165 64 -152 212 -299 392 -390 71 -36 243 -84 336 -95 33
-3 71 -9 87 -11 l27 -6 -2 -191 -3 -192 -162 3 c-176 4 -218 -1 -227 -25 -17
-42 -5 -43 433 -41 402 3 416 4 419 22 8 40 -22 46 -210 46 l-178 0 0 189 c0
208 -2 201 65 201 75 0 276 51 360 90 260 123 432 339 459 577 9 69 -6 83 -86
83 -51 0 -59 2 -54 16 37 96 31 179 -18 279 -41 82 -120 155 -199 181 l-48 16
7 68 c7 77 -15 198 -48 263 -30 60 -150 179 -213 211 -75 39 -88 31 -96 -55
-6 -67 -30 -126 -55 -136 -8 -3 -29 2 -47 10 -17 8 -42 18 -54 21 -16 5 -23
18 -28 49 -17 107 -102 223 -192 264 -62 27 -91 29 -99 8z m637 -292 c84 -80
121 -159 127 -269 3 -46 -1 -104 -7 -128 -6 -25 -8 -51 -5 -59 3 -8 34 -22 69
-32 86 -23 136 -58 173 -119 56 -94 64 -178 25 -260 l-17 -36 -693 0 -692 0
-18 33 c-12 22 -18 55 -18 107 0 65 4 82 30 129 39 70 95 117 164 137 83 24
85 26 91 80 11 97 79 175 172 198 25 6 27 3 38 -45 31 -128 180 -192 292 -126
86 50 119 122 99 211 -10 44 -9 51 8 70 29 31 71 116 71 142 0 38 27 29 91
-33z m-285 -126 c108 -99 -6 -279 -135 -213 -66 35 -88 113 -52 185 23 44 50
59 109 60 34 1 49 -5 78 -32z m800 -889 c-34 -221 -200 -401 -469 -507 -353
-139 -788 -63 -1040 183 -99 97 -164 211 -174 309 l-6 57 848 0 848 0 -7 -42z"/>
<path d="M2846 2900 c-27 -28 -78 -64 -113 -81 -54 -27 -73 -31 -140 -31 -75
0 -119 11 -220 53 -29 12 -35 11 -49 -3 -9 -9 -14 -23 -11 -32 15 -38 173 -86
285 -86 96 0 205 38 262 91 50 47 82 97 75 119 -10 32 -36 24 -89 -30z"/>
</g>
</svg>
