<?xml version="1.0" standalone="no"?>
<!DOCTYPE svg PUBLIC "-//W3C//DTD SVG 20010904//EN"
 "http://www.w3.org/TR/2001/REC-SVG-20010904/DTD/svg10.dtd">
<svg version="1.0" xmlns="http://www.w3.org/2000/svg"
 width="500.000000pt" height="500.000000pt" viewBox="0 0 500.000000 500.000000"
 preserveAspectRatio="xMidYMid meet">

<g transform="translate(0.000000,500.000000) scale(0.100000,-0.100000)"
fill="#000000" stroke="none">
<path d="M2580 3258 c-17 -18 -38 -54 -48 -80 -13 -38 -24 -50 -55 -64 -76
-35 -127 -125 -112 -203 9 -46 47 -120 77 -148 12 -12 44 -27 69 -34 68 -18
129 1 178 57 95 108 65 273 -59 329 -22 10 -40 24 -40 31 0 27 22 60 51 77 40
22 38 60 -3 65 -21 3 -35 -5 -58 -30z m40 -213 c79 -41 78 -163 -2 -230 -55
-47 -134 -21 -173 56 -32 60 -6 157 48 179 35 14 95 11 127 -5z"/>
<path d="M2802 2931 c-27 -17 -8 -46 38 -59 139 -41 190 -76 190 -129 0 -36
-29 -65 -91 -91 -25 -11 -56 -33 -68 -48 -20 -26 -22 -37 -19 -137 3 -94 1
-111 -14 -120 -13 -9 -21 -7 -37 7 -17 16 -20 27 -15 75 4 46 1 64 -18 101
-32 62 -63 78 -116 61 -35 -12 -46 -12 -81 3 -87 34 -183 11 -235 -56 -35 -47
-65 -122 -68 -171 -3 -39 -1 -42 23 -45 25 -3 29 2 49 62 24 74 53 120 93 150
25 18 31 19 80 7 81 -20 146 -24 161 -12 25 21 46 -25 46 -102 0 -79 17 -120
60 -142 98 -51 163 38 139 189 -14 86 -9 98 52 120 29 10 65 31 81 46 l28 29
24 -47 c36 -71 83 -227 96 -317 6 -44 14 -139 17 -212 5 -106 3 -136 -8 -149
-21 -26 -167 -90 -266 -118 -223 -61 -517 -65 -738 -10 -96 24 -254 87 -287
114 -25 22 -31 34 -33 75 -5 113 49 439 90 543 l17 42 47 -41 c25 -22 51 -50
58 -62 17 -30 16 -127 -2 -220 -20 -102 -19 -196 1 -247 18 -45 38 -60 82 -60
49 0 71 36 99 159 27 118 26 141 -7 141 -25 0 -33 -20 -55 -121 -18 -87 -38
-123 -55 -99 -21 30 -23 67 -11 155 20 134 25 263 12 305 -6 22 -29 53 -55 77
-53 48 -63 77 -43 125 33 78 82 116 207 158 33 11 46 21 48 38 5 34 -23 38
-102 13 -93 -30 -138 -62 -196 -139 -77 -101 -169 -363 -188 -533 l-7 -64 -90
-47 c-202 -108 -278 -251 -201 -382 41 -70 108 -129 208 -181 84 -45 129 -61
248 -90 220 -54 270 -60 550 -60 232 0 279 3 380 22 63 12 138 29 165 38 28 8
58 15 67 15 33 0 193 76 268 125 97 66 142 133 148 221 3 45 -1 72 -14 99 -27
58 -121 146 -199 187 -63 33 -70 39 -73 70 -10 117 -71 361 -116 462 -20 45
-77 141 -120 203 -24 33 -217 92 -244 74z m-987 -884 c-8 -53 9 -124 38 -155
30 -32 85 -59 192 -94 376 -122 631 -124 995 -8 208 66 242 95 248 210 5 90
14 90 125 0 90 -73 119 -150 83 -218 -16 -31 -87 -100 -128 -125 -55 -34 -212
-97 -302 -121 -180 -48 -215 -51 -536 -51 -278 1 -314 3 -410 24 -178 38 -382
118 -456 179 -33 27 -82 100 -89 132 -16 75 45 163 161 233 80 48 87 47 79 -6z"/>
</g>
</svg>
