<?xml version="1.0" standalone="no"?>
<!DOCTYPE svg PUBLIC "-//W3C//DTD SVG 20010904//EN"
 "http://www.w3.org/TR/2001/REC-SVG-20010904/DTD/svg10.dtd">
<svg version="1.0" xmlns="http://www.w3.org/2000/svg"
 width="500.000000pt" height="500.000000pt" viewBox="0 0 500.000000 500.000000"
 preserveAspectRatio="xMidYMid meet">

<g transform="translate(0.000000,500.000000) scale(0.100000,-0.100000)"
fill="#000000" stroke="none">
<path d="M2471 3446 c-29 -8 -94 -34 -145 -59 -72 -35 -105 -46 -158 -50 -221
-16 -490 -285 -505 -505 -4 -52 -14 -84 -43 -142 -72 -143 -95 -248 -79 -375
13 -103 40 -170 92 -230 34 -39 45 -61 50 -98 11 -77 44 -142 102 -197 30 -27
57 -50 62 -50 4 0 44 -35 89 -78 120 -116 185 -141 273 -106 81 32 121 140
100 266 -10 62 -9 70 10 97 21 30 19 61 -4 61 -7 0 -44 -31 -81 -68 -88 -87
-156 -121 -256 -129 -62 -5 -80 -2 -113 15 -51 26 -68 45 -99 112 -46 99 -52
95 147 96 204 2 300 18 405 70 100 49 131 91 146 203 2 19 13 27 50 39 61 20
128 79 156 139 18 39 22 64 21 138 -1 162 -38 316 -112 470 -40 83 -149 203
-209 230 -22 10 -40 22 -40 27 0 16 102 56 185 73 88 18 176 15 259 -10 70
-21 109 -49 136 -97 24 -41 25 -49 24 -218 -1 -246 -38 -384 -118 -445 -41
-31 -48 -65 -14 -65 11 0 36 11 54 25 18 14 40 25 50 25 35 0 101 25 152 58
51 33 53 34 111 24 77 -14 172 -1 217 30 47 32 78 97 72 153 -6 51 -69 146
-142 213 -25 23 -52 55 -60 71 -38 73 -184 161 -265 161 -14 0 -44 19 -75 48
-71 64 -137 85 -281 89 -68 1 -130 -3 -164 -11z m-137 -195 c170 -84 294 -349
299 -641 2 -112 -3 -131 -52 -183 -50 -54 -76 -62 -198 -60 -129 1 -287 36
-388 84 -95 45 -193 126 -234 193 -35 57 -36 62 -36 156 0 90 2 100 35 165 59
117 202 249 320 297 66 26 188 21 254 -11z m740 -11 c112 -43 151 -101 144
-216 -6 -91 -40 -163 -115 -244 -50 -54 -156 -120 -170 -106 -3 2 4 29 15 58
33 88 46 194 47 365 0 121 3 163 12 163 7 0 37 -9 67 -20z m247 -232 c74 -83
94 -149 64 -208 -22 -43 -63 -60 -143 -60 -76 0 -89 6 -68 29 29 34 86 160 97
214 7 31 14 57 17 57 2 0 17 -15 33 -32z m-1612 -383 c13 -25 54 -73 90 -108
125 -117 336 -196 566 -210 l40 -2 -1 -43 c-1 -49 -24 -85 -74 -120 -79 -53
-274 -87 -469 -80 -95 3 -111 6 -155 32 -37 22 -53 39 -72 80 -31 68 -47 175
-39 256 11 101 59 240 84 240 3 0 17 -20 30 -45z m551 -860 c0 -110 -40 -165
-120 -165 -37 0 -102 36 -148 81 l-33 32 68 18 c60 15 170 66 198 90 25 24 35
8 35 -56z"/>
</g>
</svg>
