<?xml version="1.0" standalone="no"?>
<!DOCTYPE svg PUBLIC "-//W3C//DTD SVG 20010904//EN"
 "http://www.w3.org/TR/2001/REC-SVG-20010904/DTD/svg10.dtd">
<svg version="1.0" xmlns="http://www.w3.org/2000/svg"
 width="500.000000pt" height="500.000000pt" viewBox="0 0 500.000000 500.000000"
 preserveAspectRatio="xMidYMid meet">

<g transform="translate(0.000000,500.000000) scale(0.100000,-0.100000)"
fill="#000000" stroke="none">
<path d="M2378 3490 c-157 -19 -351 -97 -473 -191 -195 -149 -328 -355 -382
-593 -25 -111 -22 -318 6 -431 29 -112 100 -269 164 -357 138 -192 366 -342
599 -394 113 -26 319 -23 433 5 109 27 288 111 371 174 71 54 177 164 224 231
52 77 127 244 151 341 31 123 32 321 1 445 -25 105 -57 180 -75 180 -8 0 -36
-12 -63 -27 -63 -35 -131 -37 -196 -5 -51 25 -81 65 -102 134 -13 47 -19 49
-111 33 -84 -15 -171 32 -206 110 -37 81 -14 197 50 243 48 35 41 58 -21 77
-110 31 -237 40 -370 25z m275 -66 c26 -3 47 -7 47 -9 0 -2 -13 -29 -30 -60
-68 -130 -18 -287 115 -358 31 -17 58 -22 118 -22 l77 0 10 -31 c18 -55 100
-130 161 -148 80 -24 119 -21 211 18 41 18 84 -237 68 -407 -35 -367 -291
-683 -646 -797 -488 -156 -1013 112 -1171 597 -122 378 -4 779 302 1023 101
79 180 122 300 160 143 45 259 54 438 34z"/>
<path d="M2377 3123 c-13 -13 -6 -31 42 -113 63 -105 75 -118 95 -100 9 7 16
17 16 23 0 5 -26 52 -57 103 -53 86 -76 107 -96 87z"/>
<path d="M1954 2976 c-74 -34 -107 -82 -112 -161 -7 -100 44 -174 141 -205 70
-22 158 10 209 77 33 43 43 87 33 150 -12 82 -112 163 -200 163 -11 0 -43 -11
-71 -24z m178 -85 c48 -54 49 -124 2 -180 -50 -60 -142 -60 -199 -1 -22 23
-29 41 -33 84 -4 50 -2 56 30 91 56 61 148 64 200 6z"/>
<path d="M2835 2801 c-49 -31 -223 -215 -230 -244 -9 -33 10 -82 39 -102 11
-8 38 -15 60 -15 36 0 47 8 149 108 60 59 115 121 122 137 18 41 8 80 -27 110
-35 30 -72 32 -113 6z m79 -57 c9 -8 16 -20 16 -26 0 -19 -209 -218 -230 -218
-10 0 -24 9 -30 21 -10 18 0 32 96 130 59 60 113 109 120 109 7 0 20 -7 28
-16z"/>
<path d="M3110 2515 c-15 -18 -8 -28 85 -117 62 -60 88 -70 99 -41 5 12 -15
38 -71 95 -43 43 -83 78 -89 78 -6 0 -17 -7 -24 -15z"/>
<path d="M2324 2484 c-76 -37 -69 -148 11 -174 114 -37 177 123 70 175 -40 18
-42 18 -81 -1z m75 -78 c5 -27 -26 -48 -50 -35 -19 10 -25 39 -12 53 14 14 58
1 62 -18z"/>
<path d="M2833 2234 c-60 -35 -93 -95 -93 -168 0 -66 15 -101 64 -143 69 -62
163 -68 236 -18 102 71 118 200 37 292 -40 45 -82 63 -149 63 -39 0 -64 -7
-95 -26z m173 -53 c34 -21 64 -75 64 -115 0 -68 -68 -136 -136 -136 -71 0
-134 63 -134 133 0 107 116 173 206 118z"/>
<path d="M1967 2132 c-38 -40 -37 -93 2 -133 l29 -29 161 0 c98 0 170 4 185
11 32 15 60 72 51 106 -3 13 -17 36 -30 49 -24 24 -28 24 -198 24 l-173 0 -27
-28z m360 -48 c8 -12 9 -22 2 -35 -9 -17 -23 -19 -157 -19 -81 0 -153 4 -160
9 -8 4 -12 19 -10 32 4 31 26 34 187 32 105 -1 127 -4 138 -19z"/>
<path d="M2462 1772 c-73 -44 -92 -60 -90 -76 5 -35 32 -29 124 27 73 44 89
58 89 78 0 13 -6 25 -15 26 -8 1 -57 -23 -108 -55z"/>
</g>
</svg>
